<!DOCTYPE svg PUBLIC "-//W3C//DTD SVG 1.1//EN" "http://www.w3.org/Graphics/SVG/1.1/DTD/svg11.dtd">
<!-- Uploaded to: SVG Repo, www.svgrepo.com, Transformed by: SVG Repo Mixer Tools -->
<svg height="64px" width="64px" version="1.1" id="Layer_1" xmlns="http://www.w3.org/2000/svg" xmlns:xlink="http://www.w3.org/1999/xlink" viewBox="-51.2 -51.2 614.40 614.40" xml:space="preserve" fill="#000000">
<g id="SVGRepo_bgCarrier" stroke-width="0"/>
<g id="SVGRepo_tracerCarrier" stroke-linecap="round" stroke-linejoin="round"/>
<g id="SVGRepo_iconCarrier"> <path style="fill:#D6E5F6;" d="M387.98,93.958C368.794,38.56,315.935,0,256,0S143.206,38.56,124.02,93.958 C54.345,101.745,0,161.008,0,232.727c0,69.067,50.407,126.585,116.364,137.697v118.303c0,12.851,10.42,23.273,23.273,23.273h232.727 c12.853,0,23.273-10.422,23.273-23.273V370.424C461.593,359.312,512,301.794,512,232.727C512,161.008,457.655,101.745,387.98,93.958 z"/> <path style="fill:#BCD6F2;" d="M387.98,93.958C368.794,38.56,315.935,0,256,0v512h116.364c12.853,0,23.273-10.422,23.273-23.273 V370.424C461.593,359.312,512,301.794,512,232.727C512,161.008,457.655,101.745,387.98,93.958z"/> <path style="fill:#8CB7E8;" d="M372.364,418.909H139.636c-12.853,0-23.273-10.42-23.273-23.274c0-12.853,10.42-23.273,23.273-23.273 h232.727c12.853,0,23.273,10.42,23.273,23.273C395.636,408.489,385.216,418.909,372.364,418.909z"/> <path style="fill:#6398DE;" d="M372.364,372.364H256v46.545h116.364c12.853,0,23.273-10.422,23.273-23.273 C395.636,382.782,385.216,372.364,372.364,372.364z"/> </g>
</svg>